<svg version="1.0" xmlns="http://www.w3.org/2000/svg"
 width="320.000000pt" height="132.000000pt" viewBox="0 0 320.000000 132.000000"
 preserveAspectRatio="xMidYMid meet">

<g transform="translate(0.000000,132.000000) scale(0.100000,-0.100000)"
fill="#000000" stroke="none">
<path d="M165 885 c-24 -23 -25 -31 -25 -133 0 -95 3 -113 21 -136 20 -26 22
-26 151 -26 126 0 131 -1 115 -18 -12 -13 -17 -37 -17 -75 0 -70 10 -77 114
-77 94 0 106 13 106 110 0 101 -10 110 -123 111 -87 0 -91 1 -69 16 20 14 22
23 22 110 0 86 -2 96 -25 118 -23 24 -31 25 -135 25 -104 0 -112 -1 -135 -25z
m243 -137 l-3 -103 -102 -3 -103 -3 0 106 0 105 105 0 106 0 -3 -102z m162
-218 l0 -60 -55 0 -55 0 0 60 0 60 55 0 55 0 0 -60z"/>
<path d="M1950 665 l0 -245 40 0 40 0 0 128 c0 121 1 130 23 150 31 30 108 31
137 2 18 -18 20 -33 20 -150 l0 -130 41 0 40 0 -3 144 c-3 128 -5 148 -24 173
-44 59 -143 68 -204 17 l-30 -26 0 91 0 91 -40 0 -40 0 0 -245z"/>
<path d="M833 771 c-46 -21 -69 -51 -79 -100 l-7 -32 38 3 c33 3 40 7 46 32
10 38 24 46 80 46 53 0 79 -21 79 -63 0 -30 -1 -30 -115 -46 -82 -12 -117 -35
-129 -84 -7 -28 -6 -41 8 -62 39 -59 145 -69 205 -19 36 30 41 30 41 -1 0 -22
4 -25 36 -25 l36 0 -4 133 c-3 110 -7 138 -24 167 -38 67 -128 88 -211 51z
m133 -268 c-54 -46 -146 -39 -146 11 0 32 11 38 95 51 l70 10 3 -25 c3 -17 -4
-31 -22 -47z"/>
<path d="M1283 775 c-18 -7 -38 -23 -45 -34 -18 -29 -28 -26 -28 9 0 27 -3 30
-30 30 l-30 0 0 -180 0 -180 34 0 34 0 4 131 c3 123 4 132 27 150 33 27 111
26 137 -2 16 -18 19 -40 22 -150 l4 -129 34 0 34 0 0 138 c0 152 -6 174 -59
209 -39 26 -90 29 -138 8z"/>
<path d="M1640 768 c-68 -35 -92 -83 -88 -179 3 -64 7 -81 30 -111 74 -97 250
-84 292 22 22 56 21 60 -24 60 -33 0 -40 -3 -40 -19 0 -49 -99 -80 -147 -46
-52 36 -55 166 -6 205 49 38 140 19 150 -32 5 -25 10 -28 45 -28 39 0 40 0 33
33 -11 48 -40 83 -85 101 -56 22 -108 20 -160 -6z"/>
<path d="M2467 776 c-74 -27 -109 -83 -109 -176 0 -117 65 -185 176 -185 114
0 176 65 176 185 0 85 -28 136 -90 168 -50 25 -97 27 -153 8z m140 -80 c26
-22 28 -30 28 -96 0 -66 -2 -74 -28 -96 -20 -17 -40 -24 -72 -24 -32 0 -52 7
-72 24 -26 22 -28 30 -28 96 0 66 2 74 28 96 20 17 40 24 72 24 32 0 52 -7 72
-24z"/>
<path d="M2894 771 c-18 -11 -34 -25 -37 -33 -3 -7 -6 -1 -6 15 -1 24 -5 27
-36 27 l-35 0 0 -180 0 -180 35 0 35 0 0 128 c0 151 8 172 69 172 44 0 61 -14
61 -52 0 -26 3 -28 41 -28 l42 0 -7 48 c-11 88 -89 128 -162 83z"/>
</g>
</svg>
